<svg xmlns="http://www.w3.org/2000/svg" width="200" height="52.566" viewBox="0 0 200 52.566">
  <g id="Grupo_24" data-name="Grupo 24" transform="translate(1503 -1697)">
    <g id="Grupo_20" data-name="Grupo 20" transform="translate(-1443.118 1700.695)">
      <path id="Caminho_19" data-name="Caminho 19" d="M116.12,14.341c0,4.672-3.541,7.581-9.19,7.581h-4.289V27.7h-4.9V6.73h9.19C112.6,6.73,116.12,9.639,116.12,14.341Zm-4.969,0c0-2.309-1.513-3.636-4.509-3.636h-4v7.272h4C109.638,17.965,111.151,16.62,111.151,14.341Z" transform="translate(-97.74 -6.348)" fill="#201f1d"/>
      <path id="Caminho_20" data-name="Caminho 20" d="M146.943,27.7l-4.093-5.842h-4.509V27.7h-4.9V6.73h9.19c5.661,0,9.19,2.909,9.19,7.611a6.822,6.822,0,0,1-4.362,6.624l4.754,6.739ZM142.36,10.687h-3.995V18h3.995c3,0,4.515-1.376,4.515-3.636S145.338,10.687,142.36,10.687Z" transform="translate(-111.568 -6.348)" fill="#201f1d"/>
      <path id="Caminho_21" data-name="Caminho 21" d="M167.59,16.948c0-6.236,4.9-10.848,11.6-10.848s11.6,4.606,11.6,10.848S185.853,27.8,179.194,27.8,167.59,23.2,167.59,16.948Zm18.233,0a6.633,6.633,0,1,0-13.264,0,6.632,6.632,0,1,0,13.264,0Z" transform="translate(-124.796 -6.1)" fill="#201f1d"/>
      <path id="Caminho_22" data-name="Caminho 22" d="M213.878,10.687H207.09V6.73h18.478v3.957h-6.782V27.7h-4.9Z" transform="translate(-140.096 -6.348)" fill="#201f1d"/>
      <path id="Caminho_23" data-name="Caminho 23" d="M257.969,23.813V27.7H241.55V6.73h16.027v3.9h-11.15v4.557h9.845v3.775h-9.845v4.848Z" transform="translate(-153.443 -6.348)" fill="#201f1d"/>
      <path id="Caminho_24" data-name="Caminho 24" d="M274.73,6.73h4.9V27.7h-4.9Z" transform="translate(-166.295 -6.348)" fill="#201f1d"/>
      <path id="Caminho_25" data-name="Caminho 25" d="M310.386,6.73V27.7h-4.025L295.786,14.978V27.7H290.94V6.73H295L305.54,19.456V6.73Z" transform="translate(-172.574 -6.348)" fill="#201f1d"/>
      <path id="Caminho_26" data-name="Caminho 26" d="M102.641,51.667v5.545h9.8V61.1h-9.8v7.642h-4.9V47.77h16.021v3.9Z" transform="translate(-97.74 -22.517)" fill="#201f1d"/>
      <path id="Caminho_27" data-name="Caminho 27" d="M129.32,47.77h4.9V68.744h-4.9Z" transform="translate(-109.972 -22.517)" fill="#201f1d"/>
      <path id="Caminho_28" data-name="Caminho 28" d="M148.418,51.727H141.63V47.77h18.478v3.957h-6.782V68.744h-4.9Z" transform="translate(-114.74 -22.517)" fill="#201f1d"/>
      <path id="Caminho_29" data-name="Caminho 29" d="M187.91,58.028c0-6.327,4.9-10.848,11.512-10.848a10.957,10.957,0,0,1,8.724,3.715l-3.155,2.872a6.862,6.862,0,0,0-5.33-2.424,6.54,6.54,0,0,0-4.883,1.864,7.067,7.067,0,0,0-.014,9.652,6.539,6.539,0,0,0,4.885,1.877,6.768,6.768,0,0,0,5.33-2.485l3.155,2.873a10.966,10.966,0,0,1-8.755,3.745C192.817,68.887,187.91,64.348,187.91,58.028Z" transform="translate(-132.666 -22.285)" fill="#201f1d"/>
      <path id="Caminho_30" data-name="Caminho 30" d="M226.32,47.77h4.9V64.787h10.636v3.957H226.32Z" transform="translate(-147.544 -22.517)" fill="#201f1d"/>
      <path id="Caminho_31" data-name="Caminho 31" d="M255.44,59.514V47.77h4.9V59.339c0,3.982,1.758,5.63,4.73,5.63s4.723-1.648,4.723-5.63V47.77h4.846V59.514c.006,6.175-3.541,9.605-9.594,9.605S255.44,65.69,255.44,59.514Z" transform="translate(-158.824 -22.517)" fill="#201f1d"/>
      <path id="Caminho_32" data-name="Caminho 32" d="M314.146,63.023c0,3.636-2.91,5.721-8.479,5.721H294.7V47.77h10.36c5.3,0,8.026,2.188,8.026,5.454a5.03,5.03,0,0,1-2.818,4.612A5.2,5.2,0,0,1,314.146,63.023Zm-14.569-11.6v4.969h4.9c2.4,0,3.676-.836,3.676-2.485s-1.3-2.46-3.676-2.46Zm9.631,11.09c0-1.769-1.36-2.606-3.909-2.606h-5.722V65.09H305.3C307.847,65.09,309.208,64.308,309.208,62.514Z" transform="translate(-174.03 -22.517)" fill="#201f1d"/>
    </g>
    <g id="Grupo_23" data-name="Grupo 23" transform="translate(-1503 1697)">
      <g id="Grupo_22" data-name="Grupo 22" transform="translate(0.049)">
        <path id="Caminho_33" data-name="Caminho 33" d="M32.729,46.457h-13.9L16.989,43.3,13.73,48.881l1.844,3.151H35.988l1.789-3.072-3.253-5.575Z" transform="translate(-5.367 -17.06)" fill="#0b5742"/>
        <path id="Caminho_34" data-name="Caminho 34" d="M6.593,17.489,13.54,5.575h13.9L34.4,17.489,32.49,20.75l3.259,5.575,5.159-8.836L30.7,0H10.287L.08,17.489,5.19,26.24l3.253-5.575Z" transform="translate(-0.08)" fill="#0b5742"/>
      </g>
      <g id="Grupo_21" data-name="Grupo 21" transform="translate(0 17.592)">
        <path id="Caminho_35" data-name="Caminho 35" d="M32.459,48.96l1.856,3.182L27.368,64.05H13.46L6.513,52.142l1.9-3.26L5.159,43.3,0,52.142,10.207,69.625H30.621L40.828,52.142l-5.11-8.757Z" transform="translate(0 -34.652)" fill="#fbcd7a"/>
        <path id="Caminho_36" data-name="Caminho 36" d="M32.686,34.605l1.838,3.157,3.253-5.575L35.939,29.03H15.525L13.73,32.1l3.259,5.575,1.789-3.072Z" transform="translate(-5.318 -29.03)" fill="#fbcd7a"/>
      </g>
    </g>
  </g>
</svg>
