<svg xmlns="http://www.w3.org/2000/svg" width="37.902" height="48.74" viewBox="0 0 37.902 48.74">
  <g id="symbol-protein-fit-club" transform="translate(1304 -58)">
    <g id="up" transform="translate(-1304 58)">
      <path id="Caminho_33" data-name="Caminho 33" d="M31.346,46.228H18.456l-1.7-2.928L13.73,48.475,15.44,51.4H34.368l1.659-2.849-3.016-5.17Z" transform="translate(-5.93 -18.969)" fill="#0b5742"/>
      <path id="Caminho_34" data-name="Caminho 34" d="M6.119,16.217,12.561,5.17H25.45L31.9,16.217,30.131,19.24l3.022,5.17,4.783-8.193L28.472,0H9.544L.08,16.217l4.738,8.114,3.016-5.17Z" transform="translate(-0.035)" fill="#0b5742"/>
    </g>
    <g id="down" transform="translate(-1304 58)">
      <path id="Caminho_35" data-name="Caminho 35" d="M30.1,48.548l1.721,2.95L25.376,62.54h-12.9L6.039,51.5,7.8,48.475,4.783,43.3,0,51.5,9.464,67.709H28.392L37.856,51.5l-4.738-8.12Z" transform="translate(0 -18.969)" fill="#fbcd7a"/>
      <path id="Caminho_36" data-name="Caminho 36" d="M31.306,34.2l1.7,2.928,3.016-5.17-1.7-2.928H15.394L13.73,31.879l3.022,5.17L18.411,34.2Z" transform="translate(-5.93 -12.718)" fill="#fbcd7a"/>
    </g>
  </g>
</svg>
